<svg xmlns="http://www.w3.org/2000/svg" role="img" aria-labelledby="title desc" viewBox="0 0 1280 820">
  <title id="title">Event threading subway map</title>
  <desc id="desc">A subway-style map of planned Event publication and consumption using Event jobs, Thread lanes, Event dispatchers, publishers, handlers, and finalizer outcomes.</desc>
  <defs>
    <style>
      .bg { fill: #ffffff; }
      .panel { fill: #f7f9fb; stroke: #d8dde6; stroke-width: 2; }
      .title { fill: #032d60; font: 700 34px Inter, Arial, sans-serif; }
      .subtitle { fill: #444b5a; font: 18px Inter, Arial, sans-serif; }
      .label { fill: #181818; font: 700 16px Inter, Arial, sans-serif; }
      .small { fill: #444b5a; font: 13px Inter, Arial, sans-serif; }
      .line { fill: none; stroke-width: 16; stroke-linecap: round; stroke-linejoin: round; }
      .thin { fill: none; stroke-width: 6; stroke-linecap: round; stroke-linejoin: round; }
      .publish { stroke: #2e844a; }
      .consume { stroke: #dd7a01; }
      .thread { stroke: #525a6a; }
      .finalizer { stroke: #7060c8; stroke-dasharray: 10 12; }
      .station { fill: #ffffff; stroke: #181818; stroke-width: 5; }
      .soft { fill: #ffffff; stroke: #d8dde6; stroke-width: 2; }
      .planned { fill: #fff7e6; stroke: #f3b300; stroke-width: 2; }
      .plannedText { fill: #5c3b00; font: 700 13px Inter, Arial, sans-serif; }
    </style>
  </defs>

  <rect class="bg" width="1280" height="820"/>
  <text class="title" x="56" y="58">Event Lines</text>
  <text class="subtitle" x="56" y="88">Event has two halves: publication sends payloads out, consumption processes payloads in. Both use shared Thread lanes.</text>
  <rect class="panel" x="44" y="118" width="1192" height="610" rx="8"/>

  <path class="line publish" d="M 96 218 H 300 C 394 218 394 336 506 336 H 1168"/>
  <path class="line consume" d="M 96 564 H 300 C 394 564 394 444 506 444 H 1168"/>
  <path class="line thread" d="M 372 390 H 1034"/>
  <path class="thin finalizer" d="M 1034 336 C 1110 388 1110 444 1034 496"/>

  <circle class="station" cx="126" cy="218" r="14"/>
  <text class="label" x="82" y="174">Outbound code</text>
  <text class="small" x="82" y="196">service has a payload</text>

  <circle class="station" cx="300" cy="218" r="14"/>
  <text class="label" x="238" y="174">Event.publish</text>
  <text class="small" x="238" y="196">reliable publication</text>

  <circle class="station" cx="506" cy="336" r="14"/>
  <text class="label" x="430" y="294">Event_Job__c</text>
  <text class="small" x="430" y="316">Job_Type = Publish</text>

  <circle class="station" cx="704" cy="336" r="14"/>
  <text class="label" x="628" y="294">Event publish lane</text>
  <text class="small" x="628" y="316">Pool = EventPublish</text>

  <circle class="station" cx="884" cy="336" r="14"/>
  <text class="label" x="806" y="294">Event.Publisher</text>
  <text class="small" x="806" y="316">batch with per-row results</text>

  <circle class="station" cx="1084" cy="336" r="14"/>
  <text class="label" x="1000" y="294">Destination</text>
  <text class="small" x="1000" y="316">EventBus or custom route</text>

  <circle class="station" cx="126" cy="564" r="14"/>
  <text class="label" x="82" y="604">Inbound source</text>
  <text class="small" x="82" y="626">PE trigger or API</text>

  <circle class="station" cx="300" cy="564" r="14"/>
  <text class="label" x="238" y="604">Event.ingest</text>
  <text class="small" x="238" y="626">reliable consumption</text>

  <circle class="station" cx="506" cy="444" r="14"/>
  <text class="label" x="430" y="486">Event_Job__c</text>
  <text class="small" x="430" y="508">Job_Type = Process</text>

  <circle class="station" cx="704" cy="444" r="14"/>
  <text class="label" x="628" y="486">Event consume lane</text>
  <text class="small" x="628" y="508">Pool = EventConsume</text>

  <circle class="station" cx="884" cy="444" r="14"/>
  <text class="label" x="806" y="486">Event.Handler</text>
  <text class="small" x="806" y="508">execute(SObject or Generic)</text>

  <circle class="station" cx="1084" cy="444" r="14"/>
  <text class="label" x="1000" y="486">Business work</text>
  <text class="small" x="1000" y="508">Done, Skipped, Retry, Error</text>

  <circle class="station" cx="372" cy="390" r="14"/>
  <text class="label" x="298" y="366">Thread__c</text>
  <text class="small" x="298" y="418">one runner per lane</text>

  <circle class="station" cx="610" cy="390" r="14"/>
  <text class="label" x="544" y="366">Lane key</text>
  <text class="small" x="544" y="418">route, event type, or partition</text>

  <circle class="station" cx="800" cy="390" r="14"/>
  <text class="label" x="728" y="366">ThreadRunner</text>
  <text class="small" x="728" y="418">Event dispatcher</text>

  <circle class="station" cx="1034" cy="390" r="14"/>
  <text class="label" x="964" y="366">Finalizer</text>
  <text class="small" x="964" y="418">persist outcome, continue lane</text>

  <rect class="soft" x="84" y="648" width="330" height="78" rx="8"/>
  <text class="label" x="110" y="678">Debug jobs</text>
  <text class="small" x="110" y="704">Status, route, job type, payload, errors</text>

  <rect class="soft" x="474" y="648" width="330" height="78" rx="8"/>
  <text class="label" x="500" y="678">Debug lanes</text>
  <text class="small" x="500" y="704">Pool, thread key, status, heartbeat</text>

  <rect class="soft" x="864" y="648" width="330" height="78" rx="8"/>
  <text class="label" x="890" y="678">Debug handlers</text>
  <text class="small" x="890" y="704">Publisher or handler class and config</text>

  <rect class="planned" x="86" y="742" width="1096" height="42" rx="6"/>
  <text class="plannedText" x="108" y="768">Roadmap map: these Event classes and metadata are planned. The shared Thread lane foundation already exists.</text>
</svg>
